<mxfile host="app.diagrams.net" agent="Mozilla/5.0 (Windows NT 10.0; Win64; x64) AppleWebKit/537.36 (KHTML, like Gecko) Chrome/133.0.0.0 Safari/537.36" version="26.1.0">
  <diagram name="PÃ¡gina-1" id="OKBPonCA5fJ84jmbi5iM">
    <mxGraphModel dx="1500" dy="2050" grid="1" gridSize="10" guides="1" tooltips="1" connect="1" arrows="1" fold="1" page="1" pageScale="1" pageWidth="827" pageHeight="1169" math="0" shadow="0">
      <root>
        <mxCell id="0" />
        <mxCell id="1" parent="0" />
        <mxCell id="bnEKjvO-4nEVMI3VJPVY-1" value="INICIO" style="strokeWidth=2;html=1;shape=mxgraph.flowchart.start_1;whiteSpace=wrap;fillColor=#d5e8d4;strokeColor=#82b366;" vertex="1" parent="1">
          <mxGeometry x="364" width="100" height="60" as="geometry" />
        </mxCell>
        <mxCell id="bnEKjvO-4nEVMI3VJPVY-2" value="FIM" style="strokeWidth=2;html=1;shape=mxgraph.flowchart.start_1;whiteSpace=wrap;fillColor=#d5e8d4;strokeColor=#82b366;" vertex="1" parent="1">
          <mxGeometry x="364" y="1050" width="100" height="60" as="geometry" />
        </mxCell>
        <mxCell id="bnEKjvO-4nEVMI3VJPVY-3" value="PRODUTO" style="html=1;strokeWidth=2;shape=manualInput;whiteSpace=wrap;rounded=1;size=26;arcSize=11;fillColor=#dae8fc;strokeColor=#6c8ebf;" vertex="1" parent="1">
          <mxGeometry x="364" y="70" width="100" height="60" as="geometry" />
        </mxCell>
        <mxCell id="bnEKjvO-4nEVMI3VJPVY-16" style="edgeStyle=orthogonalEdgeStyle;rounded=0;orthogonalLoop=1;jettySize=auto;html=1;exitX=0.5;exitY=1;exitDx=0;exitDy=0;entryX=0.5;entryY=0;entryDx=0;entryDy=0;" edge="1" parent="1" source="bnEKjvO-4nEVMI3VJPVY-4" target="bnEKjvO-4nEVMI3VJPVY-14">
          <mxGeometry relative="1" as="geometry" />
        </mxCell>
        <mxCell id="bnEKjvO-4nEVMI3VJPVY-4" value="ESTADO" style="html=1;strokeWidth=2;shape=manualInput;whiteSpace=wrap;rounded=1;size=26;arcSize=11;fillColor=#dae8fc;strokeColor=#6c8ebf;" vertex="1" parent="1">
          <mxGeometry x="364" y="210" width="100" height="60" as="geometry" />
        </mxCell>
        <mxCell id="bnEKjvO-4nEVMI3VJPVY-5" value="VALOR" style="html=1;strokeWidth=2;shape=manualInput;whiteSpace=wrap;rounded=1;size=26;arcSize=11;fillColor=#dae8fc;strokeColor=#6c8ebf;" vertex="1" parent="1">
          <mxGeometry x="364" y="140" width="100" height="60" as="geometry" />
        </mxCell>
        <mxCell id="bnEKjvO-4nEVMI3VJPVY-25" style="edgeStyle=orthogonalEdgeStyle;rounded=0;orthogonalLoop=1;jettySize=auto;html=1;exitX=1;exitY=0.5;exitDx=0;exitDy=0;exitPerimeter=0;entryX=0;entryY=0.5;entryDx=0;entryDy=0;" edge="1" parent="1" source="bnEKjvO-4nEVMI3VJPVY-6" target="bnEKjvO-4nEVMI3VJPVY-7">
          <mxGeometry relative="1" as="geometry" />
        </mxCell>
        <mxCell id="bnEKjvO-4nEVMI3VJPVY-28" value="S" style="edgeLabel;html=1;align=center;verticalAlign=middle;resizable=0;points=[];" vertex="1" connectable="0" parent="bnEKjvO-4nEVMI3VJPVY-25">
          <mxGeometry x="-0.1135" y="-3" relative="1" as="geometry">
            <mxPoint as="offset" />
          </mxGeometry>
        </mxCell>
        <mxCell id="bnEKjvO-4nEVMI3VJPVY-6" value="ESTADO = SP" style="strokeWidth=2;html=1;shape=mxgraph.flowchart.decision;whiteSpace=wrap;fillColor=#ffe6cc;strokeColor=#d79b00;" vertex="1" parent="1">
          <mxGeometry x="352" y="360" width="124" height="80" as="geometry" />
        </mxCell>
        <mxCell id="bnEKjvO-4nEVMI3VJPVY-7" value="FRETE = VALOR * 10%" style="rounded=1;whiteSpace=wrap;html=1;absoluteArcSize=1;arcSize=14;strokeWidth=2;fillColor=#f5f5f5;fontColor=#333333;strokeColor=#666666;" vertex="1" parent="1">
          <mxGeometry x="550" y="380" width="140" height="40" as="geometry" />
        </mxCell>
        <mxCell id="bnEKjvO-4nEVMI3VJPVY-14" value="FRETE = 0" style="rounded=1;whiteSpace=wrap;html=1;absoluteArcSize=1;arcSize=14;strokeWidth=2;fillColor=#f5f5f5;fontColor=#333333;strokeColor=#666666;" vertex="1" parent="1">
          <mxGeometry x="354" y="290" width="120" height="40" as="geometry" />
        </mxCell>
        <mxCell id="bnEKjvO-4nEVMI3VJPVY-17" style="edgeStyle=orthogonalEdgeStyle;rounded=0;orthogonalLoop=1;jettySize=auto;html=1;exitX=0.5;exitY=1;exitDx=0;exitDy=0;entryX=0.5;entryY=0.167;entryDx=0;entryDy=0;entryPerimeter=0;" edge="1" parent="1" source="bnEKjvO-4nEVMI3VJPVY-5" target="bnEKjvO-4nEVMI3VJPVY-4">
          <mxGeometry relative="1" as="geometry" />
        </mxCell>
        <mxCell id="bnEKjvO-4nEVMI3VJPVY-18" style="edgeStyle=orthogonalEdgeStyle;rounded=0;orthogonalLoop=1;jettySize=auto;html=1;exitX=0.5;exitY=1;exitDx=0;exitDy=0;entryX=0.508;entryY=0.163;entryDx=0;entryDy=0;entryPerimeter=0;" edge="1" parent="1" source="bnEKjvO-4nEVMI3VJPVY-3" target="bnEKjvO-4nEVMI3VJPVY-5">
          <mxGeometry relative="1" as="geometry" />
        </mxCell>
        <mxCell id="bnEKjvO-4nEVMI3VJPVY-19" style="edgeStyle=orthogonalEdgeStyle;rounded=0;orthogonalLoop=1;jettySize=auto;html=1;exitX=0.5;exitY=1;exitDx=0;exitDy=0;exitPerimeter=0;entryX=0.492;entryY=0.157;entryDx=0;entryDy=0;entryPerimeter=0;" edge="1" parent="1" source="bnEKjvO-4nEVMI3VJPVY-1" target="bnEKjvO-4nEVMI3VJPVY-3">
          <mxGeometry relative="1" as="geometry" />
        </mxCell>
        <mxCell id="bnEKjvO-4nEVMI3VJPVY-27" style="edgeStyle=orthogonalEdgeStyle;rounded=0;orthogonalLoop=1;jettySize=auto;html=1;exitX=1;exitY=0.5;exitDx=0;exitDy=0;exitPerimeter=0;entryX=0;entryY=0.5;entryDx=0;entryDy=0;" edge="1" parent="1" source="bnEKjvO-4nEVMI3VJPVY-21" target="bnEKjvO-4nEVMI3VJPVY-23">
          <mxGeometry relative="1" as="geometry" />
        </mxCell>
        <mxCell id="bnEKjvO-4nEVMI3VJPVY-30" value="S" style="edgeLabel;html=1;align=center;verticalAlign=middle;resizable=0;points=[];" vertex="1" connectable="0" parent="bnEKjvO-4nEVMI3VJPVY-27">
          <mxGeometry x="-0.0595" y="-1" relative="1" as="geometry">
            <mxPoint as="offset" />
          </mxGeometry>
        </mxCell>
        <mxCell id="bnEKjvO-4nEVMI3VJPVY-21" value="ESTADO = MG" style="strokeWidth=2;html=1;shape=mxgraph.flowchart.decision;whiteSpace=wrap;fillColor=#ffe6cc;strokeColor=#d79b00;" vertex="1" parent="1">
          <mxGeometry x="352" y="570" width="124" height="80" as="geometry" />
        </mxCell>
        <mxCell id="bnEKjvO-4nEVMI3VJPVY-26" style="edgeStyle=orthogonalEdgeStyle;rounded=0;orthogonalLoop=1;jettySize=auto;html=1;exitX=1;exitY=0.5;exitDx=0;exitDy=0;exitPerimeter=0;entryX=0;entryY=0.5;entryDx=0;entryDy=0;" edge="1" parent="1" source="bnEKjvO-4nEVMI3VJPVY-22" target="bnEKjvO-4nEVMI3VJPVY-24">
          <mxGeometry relative="1" as="geometry" />
        </mxCell>
        <mxCell id="bnEKjvO-4nEVMI3VJPVY-29" value="S" style="edgeLabel;html=1;align=center;verticalAlign=middle;resizable=0;points=[];" vertex="1" connectable="0" parent="bnEKjvO-4nEVMI3VJPVY-26">
          <mxGeometry x="0.0486" y="-3" relative="1" as="geometry">
            <mxPoint as="offset" />
          </mxGeometry>
        </mxCell>
        <mxCell id="bnEKjvO-4nEVMI3VJPVY-22" value="ESTADO = RJ" style="strokeWidth=2;html=1;shape=mxgraph.flowchart.decision;whiteSpace=wrap;fillColor=#ffe6cc;strokeColor=#d79b00;" vertex="1" parent="1">
          <mxGeometry x="352" y="460" width="124" height="80" as="geometry" />
        </mxCell>
        <mxCell id="bnEKjvO-4nEVMI3VJPVY-23" value="FRETE = VALOR * 17%" style="rounded=1;whiteSpace=wrap;html=1;absoluteArcSize=1;arcSize=14;strokeWidth=2;fillColor=#f5f5f5;fontColor=#333333;strokeColor=#666666;" vertex="1" parent="1">
          <mxGeometry x="550" y="590" width="140" height="40" as="geometry" />
        </mxCell>
        <mxCell id="bnEKjvO-4nEVMI3VJPVY-24" value="FRETE = VALOR * 15%" style="rounded=1;whiteSpace=wrap;html=1;absoluteArcSize=1;arcSize=14;strokeWidth=2;fillColor=#f5f5f5;fontColor=#333333;strokeColor=#666666;" vertex="1" parent="1">
          <mxGeometry x="550" y="480" width="140" height="40" as="geometry" />
        </mxCell>
        <mxCell id="bnEKjvO-4nEVMI3VJPVY-31" style="edgeStyle=orthogonalEdgeStyle;rounded=0;orthogonalLoop=1;jettySize=auto;html=1;exitX=0.5;exitY=1;exitDx=0;exitDy=0;entryX=0.5;entryY=0;entryDx=0;entryDy=0;entryPerimeter=0;" edge="1" parent="1" source="bnEKjvO-4nEVMI3VJPVY-14" target="bnEKjvO-4nEVMI3VJPVY-6">
          <mxGeometry relative="1" as="geometry" />
        </mxCell>
        <mxCell id="bnEKjvO-4nEVMI3VJPVY-32" style="edgeStyle=orthogonalEdgeStyle;rounded=0;orthogonalLoop=1;jettySize=auto;html=1;exitX=0.5;exitY=1;exitDx=0;exitDy=0;exitPerimeter=0;entryX=0.5;entryY=0;entryDx=0;entryDy=0;entryPerimeter=0;" edge="1" parent="1" source="bnEKjvO-4nEVMI3VJPVY-6" target="bnEKjvO-4nEVMI3VJPVY-22">
          <mxGeometry relative="1" as="geometry" />
        </mxCell>
        <mxCell id="bnEKjvO-4nEVMI3VJPVY-34" value="N" style="edgeLabel;html=1;align=center;verticalAlign=middle;resizable=0;points=[];" vertex="1" connectable="0" parent="bnEKjvO-4nEVMI3VJPVY-32">
          <mxGeometry x="-0.34" y="2" relative="1" as="geometry">
            <mxPoint as="offset" />
          </mxGeometry>
        </mxCell>
        <mxCell id="bnEKjvO-4nEVMI3VJPVY-33" style="edgeStyle=orthogonalEdgeStyle;rounded=0;orthogonalLoop=1;jettySize=auto;html=1;exitX=0.5;exitY=1;exitDx=0;exitDy=0;exitPerimeter=0;entryX=0.5;entryY=0;entryDx=0;entryDy=0;entryPerimeter=0;" edge="1" parent="1" source="bnEKjvO-4nEVMI3VJPVY-22" target="bnEKjvO-4nEVMI3VJPVY-21">
          <mxGeometry relative="1" as="geometry" />
        </mxCell>
        <mxCell id="bnEKjvO-4nEVMI3VJPVY-35" value="N" style="edgeLabel;html=1;align=center;verticalAlign=middle;resizable=0;points=[];" vertex="1" connectable="0" parent="bnEKjvO-4nEVMI3VJPVY-33">
          <mxGeometry x="-0.2933" y="2" relative="1" as="geometry">
            <mxPoint as="offset" />
          </mxGeometry>
        </mxCell>
        <mxCell id="bnEKjvO-4nEVMI3VJPVY-36" value="" style="strokeWidth=2;html=1;shape=mxgraph.flowchart.start_2;whiteSpace=wrap;fillColor=#f5f5f5;gradientColor=#b3b3b3;strokeColor=#666666;" vertex="1" parent="1">
          <mxGeometry x="740" y="385" width="33" height="30" as="geometry" />
        </mxCell>
        <mxCell id="bnEKjvO-4nEVMI3VJPVY-37" value="" style="strokeWidth=2;html=1;shape=mxgraph.flowchart.start_2;whiteSpace=wrap;fillColor=#f5f5f5;gradientColor=#b3b3b3;strokeColor=#666666;" vertex="1" parent="1">
          <mxGeometry x="740" y="595" width="33" height="30" as="geometry" />
        </mxCell>
        <mxCell id="bnEKjvO-4nEVMI3VJPVY-38" value="" style="strokeWidth=2;html=1;shape=mxgraph.flowchart.start_2;whiteSpace=wrap;fillColor=#f5f5f5;gradientColor=#b3b3b3;strokeColor=#666666;" vertex="1" parent="1">
          <mxGeometry x="740" y="485" width="33" height="30" as="geometry" />
        </mxCell>
        <mxCell id="bnEKjvO-4nEVMI3VJPVY-39" value="" style="strokeWidth=2;html=1;shape=mxgraph.flowchart.start_2;whiteSpace=wrap;fillColor=#f5f5f5;gradientColor=#b3b3b3;strokeColor=#666666;" vertex="1" parent="1">
          <mxGeometry x="397.5" y="720" width="33" height="30" as="geometry" />
        </mxCell>
        <mxCell id="bnEKjvO-4nEVMI3VJPVY-40" style="edgeStyle=orthogonalEdgeStyle;rounded=0;orthogonalLoop=1;jettySize=auto;html=1;exitX=1;exitY=0.5;exitDx=0;exitDy=0;entryX=0;entryY=0.5;entryDx=0;entryDy=0;entryPerimeter=0;" edge="1" parent="1" source="bnEKjvO-4nEVMI3VJPVY-7" target="bnEKjvO-4nEVMI3VJPVY-36">
          <mxGeometry relative="1" as="geometry" />
        </mxCell>
        <mxCell id="bnEKjvO-4nEVMI3VJPVY-41" style="edgeStyle=orthogonalEdgeStyle;rounded=0;orthogonalLoop=1;jettySize=auto;html=1;exitX=1;exitY=0.5;exitDx=0;exitDy=0;entryX=0;entryY=0.5;entryDx=0;entryDy=0;entryPerimeter=0;" edge="1" parent="1" source="bnEKjvO-4nEVMI3VJPVY-24" target="bnEKjvO-4nEVMI3VJPVY-38">
          <mxGeometry relative="1" as="geometry" />
        </mxCell>
        <mxCell id="bnEKjvO-4nEVMI3VJPVY-42" style="edgeStyle=orthogonalEdgeStyle;rounded=0;orthogonalLoop=1;jettySize=auto;html=1;exitX=1;exitY=0.5;exitDx=0;exitDy=0;entryX=0;entryY=0.5;entryDx=0;entryDy=0;entryPerimeter=0;" edge="1" parent="1" source="bnEKjvO-4nEVMI3VJPVY-23" target="bnEKjvO-4nEVMI3VJPVY-37">
          <mxGeometry relative="1" as="geometry" />
        </mxCell>
        <mxCell id="bnEKjvO-4nEVMI3VJPVY-43" style="edgeStyle=orthogonalEdgeStyle;rounded=0;orthogonalLoop=1;jettySize=auto;html=1;exitX=0.5;exitY=1;exitDx=0;exitDy=0;exitPerimeter=0;entryX=1;entryY=0.5;entryDx=0;entryDy=0;entryPerimeter=0;" edge="1" parent="1" source="bnEKjvO-4nEVMI3VJPVY-37" target="bnEKjvO-4nEVMI3VJPVY-39">
          <mxGeometry relative="1" as="geometry" />
        </mxCell>
        <mxCell id="bnEKjvO-4nEVMI3VJPVY-44" style="edgeStyle=orthogonalEdgeStyle;rounded=0;orthogonalLoop=1;jettySize=auto;html=1;exitX=0.5;exitY=1;exitDx=0;exitDy=0;exitPerimeter=0;entryX=0.5;entryY=0;entryDx=0;entryDy=0;entryPerimeter=0;" edge="1" parent="1" source="bnEKjvO-4nEVMI3VJPVY-21" target="bnEKjvO-4nEVMI3VJPVY-39">
          <mxGeometry relative="1" as="geometry" />
        </mxCell>
        <mxCell id="bnEKjvO-4nEVMI3VJPVY-45" style="edgeStyle=orthogonalEdgeStyle;rounded=0;orthogonalLoop=1;jettySize=auto;html=1;exitX=0.5;exitY=1;exitDx=0;exitDy=0;exitPerimeter=0;entryX=0.5;entryY=0;entryDx=0;entryDy=0;entryPerimeter=0;" edge="1" parent="1" source="bnEKjvO-4nEVMI3VJPVY-36" target="bnEKjvO-4nEVMI3VJPVY-38">
          <mxGeometry relative="1" as="geometry" />
        </mxCell>
        <mxCell id="bnEKjvO-4nEVMI3VJPVY-46" style="edgeStyle=orthogonalEdgeStyle;rounded=0;orthogonalLoop=1;jettySize=auto;html=1;exitX=0.5;exitY=1;exitDx=0;exitDy=0;exitPerimeter=0;entryX=0.5;entryY=0;entryDx=0;entryDy=0;entryPerimeter=0;" edge="1" parent="1" source="bnEKjvO-4nEVMI3VJPVY-38" target="bnEKjvO-4nEVMI3VJPVY-37">
          <mxGeometry relative="1" as="geometry" />
        </mxCell>
        <mxCell id="bnEKjvO-4nEVMI3VJPVY-47" value="NAO ENTREGAMOS" style="strokeWidth=2;html=1;shape=mxgraph.flowchart.display;whiteSpace=wrap;fillColor=#e1d5e7;strokeColor=#9673a6;" vertex="1" parent="1">
          <mxGeometry x="240" y="890" width="100" height="60" as="geometry" />
        </mxCell>
        <mxCell id="bnEKjvO-4nEVMI3VJPVY-58" style="edgeStyle=orthogonalEdgeStyle;rounded=0;orthogonalLoop=1;jettySize=auto;html=1;exitX=1;exitY=0.5;exitDx=0;exitDy=0;exitPerimeter=0;" edge="1" parent="1" source="bnEKjvO-4nEVMI3VJPVY-55" target="bnEKjvO-4nEVMI3VJPVY-56">
          <mxGeometry relative="1" as="geometry" />
        </mxCell>
        <mxCell id="bnEKjvO-4nEVMI3VJPVY-61" value="N" style="edgeLabel;html=1;align=center;verticalAlign=middle;resizable=0;points=[];" vertex="1" connectable="0" parent="bnEKjvO-4nEVMI3VJPVY-58">
          <mxGeometry x="-0.2324" relative="1" as="geometry">
            <mxPoint as="offset" />
          </mxGeometry>
        </mxCell>
        <mxCell id="bnEKjvO-4nEVMI3VJPVY-55" value="FRETE = 0" style="strokeWidth=2;html=1;shape=mxgraph.flowchart.decision;whiteSpace=wrap;fillColor=#ffe6cc;strokeColor=#d79b00;" vertex="1" parent="1">
          <mxGeometry x="352" y="790" width="124" height="80" as="geometry" />
        </mxCell>
        <mxCell id="bnEKjvO-4nEVMI3VJPVY-56" value="FRETE" style="strokeWidth=2;html=1;shape=mxgraph.flowchart.display;whiteSpace=wrap;fillColor=#e1d5e7;strokeColor=#9673a6;" vertex="1" parent="1">
          <mxGeometry x="500" y="890" width="100" height="60" as="geometry" />
        </mxCell>
        <mxCell id="bnEKjvO-4nEVMI3VJPVY-57" style="edgeStyle=orthogonalEdgeStyle;rounded=0;orthogonalLoop=1;jettySize=auto;html=1;exitX=0;exitY=0.5;exitDx=0;exitDy=0;exitPerimeter=0;entryX=0.5;entryY=0;entryDx=0;entryDy=0;entryPerimeter=0;" edge="1" parent="1" source="bnEKjvO-4nEVMI3VJPVY-55" target="bnEKjvO-4nEVMI3VJPVY-47">
          <mxGeometry relative="1" as="geometry" />
        </mxCell>
        <mxCell id="bnEKjvO-4nEVMI3VJPVY-60" value="S" style="edgeLabel;html=1;align=center;verticalAlign=middle;resizable=0;points=[];" vertex="1" connectable="0" parent="bnEKjvO-4nEVMI3VJPVY-57">
          <mxGeometry x="-0.5035" y="2" relative="1" as="geometry">
            <mxPoint as="offset" />
          </mxGeometry>
        </mxCell>
        <mxCell id="bnEKjvO-4nEVMI3VJPVY-59" style="edgeStyle=orthogonalEdgeStyle;rounded=0;orthogonalLoop=1;jettySize=auto;html=1;exitX=0.5;exitY=1;exitDx=0;exitDy=0;exitPerimeter=0;entryX=0.5;entryY=0;entryDx=0;entryDy=0;entryPerimeter=0;" edge="1" parent="1" source="bnEKjvO-4nEVMI3VJPVY-39" target="bnEKjvO-4nEVMI3VJPVY-55">
          <mxGeometry relative="1" as="geometry" />
        </mxCell>
        <mxCell id="bnEKjvO-4nEVMI3VJPVY-62" value="" style="strokeWidth=2;html=1;shape=mxgraph.flowchart.start_2;whiteSpace=wrap;fillColor=#f5f5f5;gradientColor=#b3b3b3;strokeColor=#666666;" vertex="1" parent="1">
          <mxGeometry x="397.5" y="990" width="33" height="30" as="geometry" />
        </mxCell>
        <mxCell id="bnEKjvO-4nEVMI3VJPVY-63" style="edgeStyle=orthogonalEdgeStyle;rounded=0;orthogonalLoop=1;jettySize=auto;html=1;exitX=0.5;exitY=1;exitDx=0;exitDy=0;exitPerimeter=0;entryX=0;entryY=0.5;entryDx=0;entryDy=0;entryPerimeter=0;" edge="1" parent="1" source="bnEKjvO-4nEVMI3VJPVY-47" target="bnEKjvO-4nEVMI3VJPVY-62">
          <mxGeometry relative="1" as="geometry" />
        </mxCell>
        <mxCell id="bnEKjvO-4nEVMI3VJPVY-64" style="edgeStyle=orthogonalEdgeStyle;rounded=0;orthogonalLoop=1;jettySize=auto;html=1;exitX=0.5;exitY=1;exitDx=0;exitDy=0;exitPerimeter=0;entryX=1;entryY=0.5;entryDx=0;entryDy=0;entryPerimeter=0;" edge="1" parent="1" source="bnEKjvO-4nEVMI3VJPVY-56" target="bnEKjvO-4nEVMI3VJPVY-62">
          <mxGeometry relative="1" as="geometry" />
        </mxCell>
        <mxCell id="bnEKjvO-4nEVMI3VJPVY-65" style="edgeStyle=orthogonalEdgeStyle;rounded=0;orthogonalLoop=1;jettySize=auto;html=1;exitX=0.5;exitY=1;exitDx=0;exitDy=0;exitPerimeter=0;entryX=0.5;entryY=0;entryDx=0;entryDy=0;entryPerimeter=0;" edge="1" parent="1" source="bnEKjvO-4nEVMI3VJPVY-62" target="bnEKjvO-4nEVMI3VJPVY-2">
          <mxGeometry relative="1" as="geometry" />
        </mxCell>
      </root>
    </mxGraphModel>
  </diagram>
</mxfile>
